<?xml version="1.0" standalone="no"?>
<!DOCTYPE svg PUBLIC "-//W3C//DTD SVG 20010904//EN"
 "http://www.w3.org/TR/2001/REC-SVG-20010904/DTD/svg10.dtd">
<svg version="1.0" xmlns="http://www.w3.org/2000/svg"
 width="500.000000pt" height="500.000000pt" viewBox="0 0 500.000000 500.000000"
 preserveAspectRatio="xMidYMid meet">

<g transform="translate(0.000000,500.000000) scale(0.100000,-0.100000)"
fill="#000000" stroke="none">
<path d="M2425 3025 c-45 -44 -22 -71 26 -31 36 30 59 33 87 9 38 -33 33 -72
-18 -122 -32 -31 -40 -47 -40 -75 l0 -36 -52 0 c-49 0 -58 -4 -123 -56 -117
-94 -213 -154 -341 -215 -67 -32 -141 -75 -164 -95 -72 -66 -102 -152 -60
-174 31 -16 59 -3 75 36 l14 34 670 0 670 0 15 -28 c20 -40 42 -55 66 -47 55
17 41 87 -33 163 -47 48 -62 58 -192 117 -101 46 -215 119 -322 206 -68 56
-74 59 -127 59 -54 0 -56 1 -56 26 0 17 14 42 40 70 33 36 40 51 40 85 0 60
-42 99 -105 99 -35 0 -51 -6 -70 -25z m325 -507 c36 -20 112 -55 170 -78 146
-57 171 -68 200 -90 25 -19 19 -20 -613 -20 -431 0 -636 3 -632 10 9 15 95 57
186 90 43 16 116 48 162 71 45 23 93 45 107 50 14 4 99 7 190 6 l165 -2 65
-37z"/>
<path d="M2334 2235 c-7 -18 13 -45 33 -45 20 0 29 -30 12 -42 -12 -8 -11 -9
1 -5 8 2 16 13 18 26 3 16 -4 24 -27 32 -36 13 -41 36 -8 42 l22 4 -23 2 c-12
0 -25 -6 -28 -14z"/>
<path d="M2445 2240 c-3 -5 -4 -14 0 -20 3 -5 0 -18 -6 -28 -20 -32 -4 -53 36
-50 40 2 43 10 14 39 -16 16 -18 23 -9 34 7 8 9 19 5 25 -8 13 -32 13 -40 0z
m33 -11 c-2 -6 -8 -10 -13 -10 -5 0 -11 4 -13 10 -2 6 4 11 13 11 9 0 15 -5
13 -11z m-3 -77 c-23 -5 -39 13 -31 35 7 16 9 16 28 -7 19 -23 19 -25 3 -28z"/>
<path d="M2586 2213 c12 -25 12 -28 -2 -31 -9 -2 -20 1 -24 8 -5 8 -9 6 -12
-7 -4 -16 -1 -18 24 -15 20 3 33 -1 43 -14 8 -11 15 -16 15 -12 0 14 -44 98
-51 98 -4 0 -1 -12 7 -27z"/>
<path d="M2337 2149 c7 -7 15 -10 18 -7 3 3 -2 9 -12 12 -14 6 -15 5 -6 -5z"/>
<path d="M2262 2070 c0 -19 2 -27 5 -17 2 9 2 25 0 35 -3 9 -5 1 -5 -18z"/>
<path d="M2621 2064 c0 -11 3 -14 6 -6 3 7 2 16 -1 19 -3 4 -6 -2 -5 -13z"/>
<path d="M1700 2000 c0 -7 273 -10 800 -10 527 0 800 3 800 10 0 7 -273 10
-800 10 -527 0 -800 -3 -800 -10z"/>
</g>
</svg>
